<?xml version="1.0" encoding="UTF-8"?>
<svg xmlns="http://www.w3.org/2000/svg" xmlns:xlink="http://www.w3.org/1999/xlink" width="29pt" height="16pt" viewBox="0 0 29 16" version="1.1">
<g id="surface4152">
<path style="fill:none;stroke-width:0.7;stroke-linecap:butt;stroke-linejoin:round;stroke:rgb(0%,0%,0%);stroke-opacity:1;stroke-miterlimit:10;" d="M 232 712 L 240 712 " transform="matrix(1,0,0,-1,-213,720)"/>
<path style="fill:none;stroke-width:0.7;stroke-linecap:butt;stroke-linejoin:round;stroke:rgb(0%,0%,0%);stroke-opacity:1;stroke-miterlimit:10;" d="M 216 712 L 221.519531 711.960938 " transform="matrix(1,0,0,-1,-213,720)"/>
<path style="fill:none;stroke-width:0.7;stroke-linecap:round;stroke-linejoin:round;stroke:rgb(0%,0%,0%);stroke-opacity:1;stroke-miterlimit:10;" d="M 221.542969 719.488281 L 221.542969 704.699219 L 232 712 L 221.542969 719.488281 " transform="matrix(1,0,0,-1,-213,720)"/>
<path style="fill:none;stroke-width:0.7;stroke-linecap:butt;stroke-linejoin:round;stroke:rgb(0%,0%,0%);stroke-opacity:1;stroke-miterlimit:10;" d="M 231.972656 719.367188 L 231.972656 704.578125 " transform="matrix(1,0,0,-1,-213,720)"/>
<path style=" stroke:none;fill-rule:evenodd;fill:rgb(0%,0%,0%);fill-opacity:1;" d="M 4.199219 8 C 4.199219 6.398438 1.800781 6.398438 1.800781 8 C 1.800781 9.601562 4.199219 9.601562 4.199219 8 Z M 4.199219 8 "/>
<path style=" stroke:none;fill-rule:evenodd;fill:rgb(0%,0%,0%);fill-opacity:1;" d="M 28.199219 8 C 28.199219 6.398438 25.800781 6.398438 25.800781 8 C 25.800781 9.601562 28.199219 9.601562 28.199219 8 Z M 28.199219 8 "/>
</g>
</svg>
