<?xml version="1.0" encoding="UTF-8" standalone="no"?>
<!DOCTYPE svg PUBLIC "-//W3C//DTD SVG 1.1//EN" "http://www.w3.org/Graphics/SVG/1.1/DTD/svg11.dtd">
<svg width="100%" height="100%" viewBox="0 0 1936 1936" version="1.1" xmlns="http://www.w3.org/2000/svg" xmlns:xlink="http://www.w3.org/1999/xlink" xml:space="preserve" xmlns:serif="http://www.serif.com/" style="fill-rule:evenodd;clip-rule:evenodd;stroke-linejoin:round;stroke-miterlimit:1.5;">
    <g transform="matrix(0.951285,0,0,0.951285,-106.773,-337.838)">
        <path d="M2146.6,525.798L2146.6,2218.93C2146.6,2313.1 2070.15,2389.55 1975.99,2389.55L282.856,2389.55C188.691,2389.55 112.241,2313.1 112.241,2218.93L112.241,525.798C112.241,431.633 188.691,355.183 282.856,355.183L1975.99,355.183C2070.15,355.183 2146.6,431.633 2146.6,525.798Z" style="fill:white;"/>
    </g>
    <g transform="matrix(1,0,0,1,-272.85,-272.85)">
        <g transform="matrix(1,0,0,1,106.915,0.367929)">
            <path d="M1596.03,1240.16L605.727,1835.18L605.727,645.133L1596.03,1240.15L1596.03,1240.16ZM1515.13,1240.16L647.393,718.783L647.393,1761.54L1515.13,1240.16L1515.13,1240.16Z" style="fill:rgb(35,31,32);"/>
        </g>
        <g transform="matrix(1,0,0,1,159.915,0.367929)">
            <path d="M232.539,1120.55C298.55,1120.55 352.142,1174.14 352.142,1240.15C352.142,1306.16 298.55,1359.76 232.539,1359.76C166.528,1359.76 112.935,1306.16 112.935,1240.15C112.935,1174.14 166.528,1120.55 232.539,1120.55ZM232.539,1162.22C189.524,1162.22 154.602,1197.14 154.602,1240.15C154.602,1283.17 189.524,1318.09 232.539,1318.09C275.553,1318.09 310.475,1283.17 310.475,1240.15C310.475,1197.14 275.553,1162.22 232.539,1162.22Z" style="fill:rgb(35,31,32);"/>
        </g>
        <g transform="matrix(1,0,0,1,-159.277,0.367929)">
            <path d="M2247.78,1120.55C2313.79,1120.55 2367.38,1174.14 2367.38,1240.15C2367.38,1306.16 2313.79,1359.76 2247.78,1359.76C2181.77,1359.76 2128.18,1306.16 2128.18,1240.15C2128.18,1174.14 2181.77,1120.55 2247.78,1120.55ZM2247.78,1162.22C2204.77,1162.22 2169.84,1197.14 2169.84,1240.15C2169.84,1283.17 2204.77,1318.09 2247.78,1318.09C2290.8,1318.09 2325.72,1283.17 2325.72,1240.15C2325.72,1197.14 2290.8,1162.22 2247.78,1162.22Z" style="fill:rgb(35,31,32);"/>
        </g>
        <g transform="matrix(1,0,0,1,106.915,0.367929)">
            <path d="M1554.89,1835.18L1554.89,645.13" style="fill:none;stroke:rgb(35,31,32);stroke-width:37.5px;"/>
        </g>
        <g transform="matrix(0.788077,0,0,1,241.996,0.367929)">
            <path d="M637.405,1240.16L337.677,1240.16" style="fill:none;stroke:rgb(35,31,32);stroke-width:41.67px;"/>
        </g>
        <g transform="matrix(1,0,0,1,1339.5,0.361429)">
            <path d="M637.405,1240.16L337.677,1240.16" style="fill:none;stroke:rgb(35,31,32);stroke-width:41.67px;"/>
        </g>
    </g>
    <g transform="matrix(1,0,0,1,-272.85,-272.85)">
        <g transform="matrix(1,0,0,1,106.915,0.367929)">
            <rect x="1366.89" y="645.135" width="187.996" height="37.25"/>
        </g>
        <g transform="matrix(1,0,0,1,106.915,0.367929)">
            <rect x="1554.89" y="1797.93" width="187.996" height="37.25"/>
        </g>
    </g>
</svg>
